# xmcd
#
# Track frame offsets:
#	150
#	23330
#	42820
#	64612
#	85815
#	108050
#	127045
#	143728
#	164312
#	182057
#	196886
#	213951
#	239944
#	266295
#	283380
#	300762
#	315035
#
# Disc length: 4570 seconds
#
# Revision: 3
# Processed by: cddbd v1.4PL0 Copyright (c) Steve Scherf et al.
# Submitted via: MusicWizard 6.0.2
#
DISCID=db11d811
DTITLE=ABBA  CD 1&2 - The Definitive Collection [CD1] [CD 2/2)
DYEAR=2001
DGENRE=Pop
TTITLE0=Voulez-Vous
TTITLE1=Angeleyes
TTITLE2=Gimme! Gimme! Gimme! (A Man After Midnight)
TTITLE3=I Have A Dream
TTITLE4=The Winner Takes It All
TTITLE5=Super Trouper
TTITLE6=On And On And On
TTITLE7=Lay All Your Love On Me
TTITLE8=One Of Us
TTITLE9=When All Is Said And Done
TTITLE10=Head Over Heals
TTITLE11=The Visitors (Crackin' Up)
TTITLE12=The Day Before You Came
TTITLE13=Under Attack
TTITLE14=Thank You For The Music
TTITLE15=Ring Ring (1974 Remix, Single Version)
TTITLE16=Voulez-Vous (Extended Remix, 1979 US Promo)
EXTD=YEAR: 2001
EXTT0=
EXTT1=
EXTT2=
EXTT3=
EXTT4=
EXTT5=
EXTT6=
EXTT7=
EXTT8=
EXTT9=
EXTT10=
EXTT11=
EXTT12=
EXTT13=
EXTT14=
EXTT15=
EXTT16=
PLAYORDER=
